<?xml version="1.0" encoding="UTF-8"?>
<svg width="20px" height="20px" viewBox="0 0 20 20" version="1.1" xmlns="http://www.w3.org/2000/svg" xmlns:xlink="http://www.w3.org/1999/xlink">
    <!-- Generator: sketchtool 53.1 (72631) - https://sketchapp.com -->
    <title>02280064-B8BB-483B-ADDD-BB8822AD1B2B</title>
    <desc>Created with sketchtool.</desc>
    <g id="Symbols" stroke="none" stroke-width="1" fill="none" fill-rule="evenodd">
        <g id="ui-components/container-headers/*/calendar" fill="#9AABAF">
            <g id="icons/action/calendar">
                <path d="M15.83625,16.67 L4.16375,16.67 L4.16375,7.49875 L15.83625,7.49875 L15.83625,16.67 Z M13.335,1.6625 L13.335,3.33 L6.665,3.33 L6.665,1.6625 L4.9975,1.6625 L4.9975,3.33 L4.16375,3.33 C3.2382875,3.33 2.49625,4.0720375 2.49625,4.9975 L2.49625,16.67 C2.49625,17.5909348 3.24281518,18.3375 4.16375,18.3375 L15.83625,18.3375 C16.7571848,18.3375 17.50375,17.5909348 17.50375,16.67 L17.50375,4.9975 C17.50375,4.0720375 16.753375,3.33 15.83625,3.33 L15.0025,3.33 L15.0025,1.6625 L13.335,1.6625 Z M14.16875,10.83375 L10,10.83375 L10,15.0025 L14.16875,15.0025 L14.16875,10.83375 Z" id="calendar"></path>
            </g>
        </g>
    </g>
</svg>