<?xml version="1.0" encoding="UTF-8"?>
<svg width="18px" height="20px" viewBox="0 0 18 20" version="1.1" xmlns="http://www.w3.org/2000/svg" xmlns:xlink="http://www.w3.org/1999/xlink">
    <!-- Generator: sketchtool 53.1 (72631) - https://sketchapp.com -->
    <title>93CAA299-95A2-40E0-9FF9-2EA4826EFEBB</title>
    <desc>Created with sketchtool.</desc>
    <g id="Navigation" stroke="none" stroke-width="1" fill="none" fill-rule="evenodd">
        <g id="Dashboard_Home-/-Navigation-/-Step-2" transform="translate(-963.000000, -620.000000)">
            <g id="Container-Area" transform="translate(37.000000, 101.000000)">
                <g id="Bottom-Left-Container" transform="translate(0.000000, 514.000000)">
                    <g id="Graph-Actions" transform="translate(895.000000, 5.000000)">
                        <g id="edit-graph" transform="translate(30.000000, 0.000000)">
                            <rect id="Rectangle" x="0" y="0" width="20" height="20"></rect>
                            <g id="20190219/edit-graph" transform="translate(1.666667, 0.833333)" fill="#9AABAF">
                                <path d="M15.5153475,15.0075 L16.675,13.8478475 L16.675,15.0075 L15.5153475,15.0075 Z M7.26576838,15.0075 L1.45483625e-12,15.0075 L1.45483625e-12,3.05533376e-13 L1.6675,3.05533376e-13 L1.6675,13.34 L3.335,13.34 L3.335,5.83625 L6.67,5.83625 L6.67,13.34 L8.3375,13.34 L8.3375,2.50125 L11.6725,2.50125 L11.6725,10.6007684 L7.26576838,15.0075 Z M16.527285,11.8710931 L15.6825477,12.7158304 L13.9508363,10.9841189 L14.7955736,10.1393817 C14.9729684,9.95353945 15.2686265,9.95353945 15.4460213,10.1393817 L16.527285,11.2206454 C16.7131272,11.3980402 16.7131272,11.6936983 16.527285,11.8710931 Z M8.33333333,16.5931745 L13.4608887,11.4740666 L15.1926001,13.205778 L10.0734921,18.3333333 L8.33333333,18.3333333 L8.33333333,16.5931745 Z" id="edit-graph"></path>
                            </g>
                        </g>
                    </g>
                </g>
            </g>
        </g>
    </g>
</svg>